<?xml version="1.0" standalone="no"?>
<!DOCTYPE svg PUBLIC "-//W3C//DTD SVG 20010904//EN"
 "http://www.w3.org/TR/2001/REC-SVG-20010904/DTD/svg10.dtd">
<svg version="1.0" xmlns="http://www.w3.org/2000/svg"
 width="700.000000pt" height="700.000000pt" viewBox="0 0 700.000000 700.000000"
 preserveAspectRatio="xMidYMid meet">
<metadata>
Created by potrace 1.14, written by Peter Selinger 2001-2017
</metadata>
<g transform="translate(0.000000,700.000000) scale(0.100000,-0.100000)"
fill="#000000" stroke="none">
<path d="M3338 6985 c-2 -2 -48 -6 -103 -9 -55 -4 -113 -9 -130 -11 -153 -21
-257 -38 -295 -46 -25 -6 -56 -13 -70 -15 -127 -23 -475 -135 -615 -198 -565
-255 -987 -579 -1350 -1035 -430 -542 -683 -1184 -742 -1886 -14 -158 -7 -545
11 -685 2 -14 7 -48 10 -75 4 -28 8 -61 11 -75 3 -14 7 -40 10 -58 32 -194
105 -455 190 -672 50 -129 174 -383 235 -481 28 -44 50 -82 50 -84 0 -9 161
-238 209 -298 343 -430 751 -758 1219 -983 161 -77 155 -75 254 -113 173 -68
463 -151 608 -176 19 -3 42 -8 50 -10 8 -2 33 -6 55 -9 22 -3 76 -10 120 -16
277 -37 697 -33 955 10 30 6 73 12 95 16 326 49 753 200 1080 381 83 46 334
206 370 235 6 4 39 31 75 59 672 522 1136 1282 1285 2104 8 44 17 90 19 102 3
12 8 53 11 90 4 37 9 70 10 73 8 13 19 223 19 370 0 150 -9 356 -18 406 -2 10
-7 44 -11 74 -67 525 -272 1060 -579 1510 -28 41 -53 77 -56 80 -3 3 -25 32
-50 65 -134 177 -333 386 -516 540 -109 93 -131 110 -244 189 -449 317 -1001
534 -1525 600 -22 3 -58 8 -80 10 -110 14 -186 18 -367 21 -109 1 -199 1 -200
0z m362 -319 c63 -4 126 -8 140 -10 14 -2 48 -7 75 -11 95 -12 120 -16 135
-20 8 -2 31 -7 50 -10 108 -18 430 -113 430 -126 0 -5 -11 -32 -24 -61 -13
-29 -49 -111 -81 -183 -31 -71 -65 -148 -75 -170 -10 -22 -73 -164 -140 -315
-67 -151 -130 -293 -140 -315 -10 -22 -36 -80 -58 -130 -22 -49 -49 -110 -60
-135 -11 -25 -73 -164 -138 -310 -64 -146 -130 -293 -145 -327 -16 -34 -40
-90 -55 -125 -74 -177 -99 -213 -129 -188 -7 6 -34 59 -59 118 -26 59 -51 114
-56 123 -4 9 -26 58 -48 110 -22 52 -59 133 -81 181 -23 48 -41 90 -41 92 0 3
-13 33 -29 68 -16 35 -57 126 -91 203 -34 77 -70 158 -80 180 -10 22 -88 200
-175 395 -86 195 -167 378 -180 405 -79 176 -165 374 -165 382 0 29 449 142
635 160 28 2 57 7 65 9 8 3 73 8 145 11 71 3 131 6 132 7 3 2 88 -1 243 -8z
m-1651 -536 c21 -47 78 -173 126 -280 48 -107 96 -215 107 -240 12 -25 80
-178 153 -340 73 -162 144 -320 158 -350 14 -30 107 -237 207 -460 100 -223
191 -425 202 -450 25 -55 119 -263 139 -308 25 -57 41 -59 380 -58 345 1 326
-3 364 81 156 348 207 461 287 640 52 116 106 235 120 265 14 30 63 138 108
240 46 102 98 218 116 258 19 41 34 75 34 77 0 2 23 51 50 110 28 59 50 108
50 110 0 2 13 32 29 67 16 35 38 83 49 108 18 40 132 294 185 410 33 74 72
162 92 208 10 23 25 42 32 42 8 0 39 -16 69 -35 30 -19 58 -35 63 -35 5 0 11
-3 13 -7 2 -5 30 -26 63 -47 309 -201 631 -517 859 -843 38 -55 56 -89 52
-101 -19 -58 -1624 -3247 -1639 -3256 -31 -18 5 -93 -442 924 -251 572 -228
526 -267 539 -49 15 -616 14 -648 -2 -26 -13 -24 -8 -275 -602 -69 -165 -132
-313 -140 -330 -7 -16 -59 -138 -115 -270 -56 -132 -107 -246 -115 -254 -7 -7
-21 -11 -30 -8 -14 6 -343 662 -1030 2052 -101 204 -278 561 -394 793 -210
422 -210 424 -193 450 99 157 256 347 422 512 162 162 174 172 315 279 110 84
168 124 295 200 l85 51 12 -27 c7 -16 30 -66 52 -113z m-1411 -1692 c44 -90
358 -721 697 -1403 339 -682 722 -1452 851 -1712 244 -491 257 -513 318 -513
39 0 75 20 95 54 11 17 94 198 184 401 91 204 215 483 277 620 61 138 120 269
130 291 10 23 74 165 141 315 157 354 155 351 180 347 11 -2 27 -14 35 -28 15
-27 104 -219 104 -225 0 -2 18 -43 40 -90 22 -47 40 -88 40 -90 0 -2 13 -32
29 -67 16 -35 59 -130 96 -213 37 -82 75 -168 85 -190 63 -139 283 -633 310
-695 18 -41 46 -104 63 -140 16 -36 38 -84 48 -107 64 -148 94 -183 157 -183
69 0 -25 -182 1635 3163 172 345 315 627 318 627 8 0 79 -220 108 -335 22 -84
46 -203 56 -270 3 -23 7 -50 9 -61 3 -12 8 -57 12 -100 3 -43 8 -92 10 -109 5
-42 5 -396 0 -420 -2 -11 -7 -56 -11 -100 -4 -44 -9 -89 -10 -100 -43 -257
-37 -227 -70 -355 -26 -102 -94 -314 -120 -375 -7 -16 -23 -55 -35 -85 -164
-401 -491 -855 -830 -1150 -41 -36 -81 -71 -88 -78 -66 -61 -300 -222 -442
-304 -87 -50 -302 -158 -314 -158 -3 0 -29 -11 -58 -24 -143 -65 -447 -152
-643 -185 -222 -37 -322 -45 -540 -45 -237 0 -334 9 -630 60 -68 12 -238 59
-361 100 -920 305 -1668 1044 -1989 1964 -20 58 -38 112 -41 120 -21 78 -64
250 -68 270 -3 14 -10 52 -16 85 -34 175 -48 361 -45 600 2 132 6 258 9 280 3
22 8 60 11 85 17 124 33 213 66 345 32 132 100 345 110 345 4 0 43 -73 87
-162z"/>
</g>
</svg>
